<?xml version="1.0" encoding="UTF-8" standalone="no"?> <!-- Created with Inkscape (http://www.inkscape.org/) --> <svg xmlns:xlink="http://www.w3.org/1999/xlink" xmlns="http://www.w3.org/2000/svg" xmlns:svg="http://www.w3.org/2000/svg" width="1920mm" height="810mm" viewBox="0 0 1920 810" version="1.1" id="svg1" xml:space="preserve"><defs id="defs1"><linearGradient id="linearGradient4"><stop style="stop-color:#f1d294;stop-opacity:1;" offset="0.30583501" id="stop5"></stop><stop style="stop-color:#e0c682;stop-opacity:1;" offset="1" id="stop4"></stop></linearGradient><radialGradient xlink:href="#linearGradient4" id="radialGradient5" cx="971.81024" cy="542.72351" fx="971.81024" fy="542.72351" r="418.17188" gradientTransform="matrix(1,0,0,0.17397153,0,448.30507)" gradientUnits="userSpaceOnUse"></radialGradient><linearGradient id="linearGradient44"><stop style="stop-color:#f1d294;stop-opacity:1;" offset="0" id="stop45"></stop><stop style="stop-color:#e0c682;stop-opacity:1;" offset="1" id="stop44"></stop></linearGradient><radialGradient xlink:href="#linearGradient44" id="radialGradient45" cx="190.74121" cy="204.21484" fx="190.74121" fy="204.21484" r="39.19043" gradientTransform="matrix(1,0,0,1.0286312,0,-5.84692)" gradientUnits="userSpaceOnUse"></radialGradient><filter style="color-interpolation-filters:sRGB" id="filter52" x="-0.0019474859" y="-0.0018932791" width="1.003895" height="1.0037866"><feGaussianBlur stdDeviation="0.063602344" id="feGaussianBlur52"></feGaussianBlur></filter><radialGradient xlink:href="#linearGradient44" id="radialGradient2" gradientUnits="userSpaceOnUse" gradientTransform="matrix(1,0,0,1.0286312,0,-5.84692)" cx="190.74121" cy="204.21484" fx="190.74121" fy="204.21484" r="39.19043"></radialGradient><radialGradient xlink:href="#linearGradient44" id="radialGradient3" gradientUnits="userSpaceOnUse" gradientTransform="matrix(1,0,0,1.0286312,0,-5.84692)" cx="190.74121" cy="204.21484" fx="190.74121" fy="204.21484" r="39.19043"></radialGradient><radialGradient xlink:href="#linearGradient44" id="radialGradient4" gradientUnits="userSpaceOnUse" gradientTransform="matrix(1,0,0,1.0286312,0,-5.84692)" cx="190.74121" cy="204.21484" fx="190.74121" fy="204.21484" r="39.19043"></radialGradient><radialGradient xlink:href="#linearGradient44" id="radialGradient5-9" gradientUnits="userSpaceOnUse" gradientTransform="matrix(1,0,0,1.0286312,0,-5.84692)" cx="190.74121" cy="204.21484" fx="190.74121" fy="204.21484" r="39.19043"></radialGradient><radialGradient xlink:href="#linearGradient44" id="radialGradient6" gradientUnits="userSpaceOnUse" gradientTransform="matrix(1,0,0,1.0286312,0,-5.84692)" cx="190.74121" cy="204.21484" fx="190.74121" fy="204.21484" r="39.19043"></radialGradient></defs><g id="layer1"><g id="g1" transform="matrix(0.94001483,0,0,0.94001483,79.969893,21.748123)"><g id="layer1-4" transform="matrix(1.713114,0,0,1.713114,-71.999078,-30.848844)"><g id="g44" transform="matrix(5.3872883,0,0,5.3872883,-742.70803,-844.16422)" style="fill:url(#radialGradient45);filter:url(#filter52)"><path d="m 229.93164,163.90234 -8.54687,0.91211 c -0.0228,0.002 -0.0359,0.0131 -0.0586,0.0156 v -0.006 c -0.0208,0.005 -0.036,0.0147 -0.0566,0.0195 -1.74857,0.20803 -3.0443,0.77174 -3.70312,1.82227 v 0.002 c -0.67537,0.61248 -1.14548,1.388 -1.50782,2.24219 0.002,-0.0515 -0.0531,-0.0642 -0.0469,-0.1211 0.0535,-0.48942 0.33971,-1.17826 0.90234,-2.00976 l 1.23828,-1.83008 -1.90625,1.11914 c -1.94662,1.14275 -3.20328,2.65888 -4.10937,4.3457 0.12849,-0.937 0.44479,-1.83609 1.1543,-2.6875 l 1.73632,-2.08398 -2.36523,1.32812 c -2.52718,1.41863 -3.54753,3.63233 -4.55664,5.73633 -0.0225,-0.10599 -0.0726,-0.25831 -0.0762,-0.36523 -0.0178,-0.53044 0.17023,-1.25296 1.23632,-2.59375 l 1.88477,-2.36914 -2.54492,1.63867 c -2.47288,1.59065 -4.1574,3.49327 -5.00586,5.77929 -0.0511,-0.22656 -0.2558,-0.4914 -0.24219,-0.70312 0.038,-0.59101 0.31468,-1.16963 0.90625,-1.77539 l 2.97266,-3.04297 -3.59766,2.27148 c -2.60587,1.64555 -4.25566,3.80479 -4.97656,6.84375 -0.20079,-1.11756 -0.10003,-2.28797 0.67773,-3.64257 l 1.56836,-2.73243 -2.33789,2.11329 c -2.7761,2.50891 -3.84886,5.86516 -4.58789,9.63671 -0.26381,-0.56841 -0.65706,-1.12967 -0.69922,-1.73437 -0.0736,-1.05552 0.21324,-2.26014 1.06836,-3.81445 l 1.75781,-3.19727 -2.55468,2.60547 c -3.67662,3.75089 -5.32547,7.99062 -5.89844,13.33594 -0.55924,-1.74502 -0.81713,-3.48433 0.0176,-5.9668 l 2.21679,-6.59766 -3.13867,6.21289 c -2.41265,4.77594 -3.8472,8.27233 -3.55078,14.5625 -0.46902,-1.88621 -0.76065,-3.90112 -0.88476,-6.7539 l -0.17383,-3.98633 -0.81641,3.90625 c -1.04158,4.98682 -1.01452,13.13274 3.13867,24.27734 -0.23328,2.88654 -0.31027,5.41854 -0.52929,7.84766 1.29175,-5.5039 1.56691,-11.2791 3.97851,-16.48437 l 3.95508,-7.78321 c 4.24418,-0.52817 5.52454,-2.70867 7.44727,-5.38672 -1.98373,1.23508 -3.50513,3.45372 -6.32032,2.8711 2.71146,-3.44671 5.89086,-8.06464 9.87891,-10.87305 3.57018,-0.71058 4.76642,-1.6234 7.0918,-3.26758 -2.67861,1.43073 -3.92031,1.31856 -5.67383,1.60547 2.92314,-3.71119 9.00051,-8.74024 13.27148,-12.55859 -10.65447,7.12967 -12.51426,8.40402 -19.08789,15.41601 -1.26588,-1.64153 -0.18282,-3.76843 0.6836,-6.07422 -1.4378,2.10743 -2.80865,3.5594 -3.06055,8.04883 -3.36504,3.75416 -6.43412,8.10522 -8.23047,12.12305 -0.80178,-0.48116 -0.97752,-2.3372 -0.5293,-5.56836 -1.06124,3.00864 -0.95604,4.59128 -0.99804,8.40039 -0.83858,3.41775 -1.31092,6.3434 -1.61133,8.96289 -1.62986,-6.08078 -1.89652,-10.28474 -2.26758,-13.80859 0.30598,1.07049 0.55291,2.1262 1.08398,3.26172 l 1.41407,3.02343 -0.4668,-3.30468 c -1.02776,-7.291 -0.19102,-10.82487 1.65625,-14.88282 -0.0121,1.93031 0.51426,3.59143 1.30078,5.33399 l 0.85938,1.9082 0.0957,-2.08984 c 0.23753,-5.25953 1.41026,-9.21684 4.04102,-12.75977 -0.0979,0.52235 -0.19569,1.04375 -0.16211,1.52539 0.0899,1.29011 0.63115,2.41965 1.39843,3.52735 l 0.70313,1.01562 0.20117,-1.21875 c 0.57702,-3.5118 1.39595,-6.45359 3.17773,-8.84961 -0.28517,1.45017 -0.22692,2.85829 0.59961,4.10547 l 0.78907,1.19141 0.125,-1.42188 c 0.27167,-3.0683 1.32295,-5.10813 3.17382,-6.75195 -0.0199,0.11261 -0.0844,0.21755 -0.0918,0.33203 -0.0558,0.86732 0.25279,1.74346 0.85547,2.59961 l 0.67773,0.96289 0.2207,-1.15625 c 0.3649,-1.89838 1.53524,-3.43988 3.08204,-4.86719 -0.0639,0.27228 -0.17592,0.56781 -0.16797,0.80469 0.0275,0.81969 0.34341,1.32317 0.3789,1.8457 l 0.11914,1.7793 0.82227,-1.58203 c 0.97744,-1.88106 1.67562,-3.77345 3.08008,-5.24024 -0.3696,1.06195 -0.52731,2.17128 -0.26172,3.33985 l 0.44531,1.95898 0.52539,-1.93945 c 0.46304,-1.7125 1.60077,-3.10276 3.0918,-4.34375 -0.0385,0.15284 -0.19473,0.33796 -0.21094,0.48633 -0.082,0.75016 0.18922,1.46176 0.75781,1.92578 l 0.62891,0.51367 0.17578,-0.79297 c 0.53539,-2.42384 2.10465,-3.87717 4.9668,-4.52539 z" style="fill:url(#radialGradient2);stroke-linecap:round;stroke-miterlimit:25;paint-order:fill markers stroke" id="path37"></path><g id="g43" transform="translate(0.27343966)" style="fill:url(#radialGradient6)"><path id="path42" style="fill:url(#radialGradient3);stroke-width:0.2;stroke-linecap:round;paint-order:fill markers stroke" d="m 151.27734,208.46484 c 1.41875,6.53415 3.20347,13.401 3.40235,18.82618 9.92886,-1.30181 18.42742,4.35932 26.60547,11.57812 -1.14506,2.52454 -0.52294,5.22156 2.69531,5.6582 3.21825,-0.43664 3.84037,-3.13366 2.69531,-5.6582 8.17805,-7.2188 16.67661,-12.87993 26.60547,-11.57812 0.19888,-5.42518 1.98359,-12.29203 3.40234,-18.82618 -16.35836,0.81954 -27.56933,10.35904 -29.12304,15.20118 7.40397,-6.58533 15.76078,-10.43138 25.58789,-10.5625 -1.44368,4.0364 -2.35722,7.54379 -2.74024,10.51953 -8.43513,0.75583 -17.05781,4.49323 -26.42773,14.36328 -9.36992,-9.87005 -17.99261,-13.60745 -26.42774,-14.36328 -0.38302,-2.97574 -1.29655,-6.48313 -2.74023,-10.51953 9.82711,0.13112 18.18392,3.97717 25.58789,10.5625 -1.55371,-4.84214 -12.76469,-14.38164 -29.12305,-15.20118 z m 32.70313,31.34766 a 1.25,1.25 0 0 1 1.25,1.25 1.25,1.25 0 0 1 -1.25,1.25 1.25,1.25 0 0 1 -1.25,-1.25 1.25,1.25 0 0 1 1.25,-1.25 z"></path><path d="m 154.19336,201.17187 0.0879,4.77344 c 9.69437,0.42919 17.58985,4.99594 25.63281,11.66602 -0.81158,-3.38877 -11.22381,-14.75916 -25.7207,-16.43946 z" style="fill:url(#radialGradient4);stroke-width:0.2;stroke-linecap:round;paint-order:fill markers stroke" id="path40"></path><path d="m 213.76758,201.17187 c -14.49689,1.6803 -24.90912,13.05069 -25.72071,16.43946 8.04296,-6.67008 15.93845,-11.23683 25.63282,-11.66602 z" style="fill:url(#radialGradient5-9);stroke-width:0.2;stroke-linecap:round;paint-order:fill markers stroke" id="path41"></path></g></g></g><g id="layer1-8" transform="matrix(0.59192701,0,0,0.59192701,718.17183,193.90108)"><g id="g3" transform="matrix(2.153446,0,0,2.153446,-1132.7408,-628.64727)"><path style="-inkscape-font-specification:Helvetica;fill:#e6e6e6;stroke-linecap:round;stroke-miterlimit:25;paint-order:fill markers stroke" d="m 561.51333,404.84848 10.09896,43.56772 12.10417,-43.56772 h 7.875 l 12.10418,43.56772 10.09896,-43.56772 h 7.94792 l -14.07292,53.55731 h -7.6198 l -12.35938,-44.40627 -12.4323,44.40627 h -7.61979 l -14.00001,-53.55731 z m 90.05212,-1.45834 q 14.1823,0 21.00001,9.11459 5.32292,7.10938 5.32292,18.19272 0,11.99479 -6.08854,19.94271 -7.14584,9.33334 -20.38022,9.33334 -12.35938,0 -19.4323,-8.16667 -6.3073,-7.875 -6.3073,-19.90626 0,-10.86459 5.39584,-18.59376 6.92708,-9.91667 20.48959,-9.91667 z m 0.72917,50.09377 q 9.58854,0 13.85417,-6.85417 4.30209,-6.89062 4.30209,-15.82292 0,-9.44271 -4.95834,-15.20313 -4.92188,-5.76042 -13.48959,-5.76042 -8.3125,0 -13.56251,5.72396 -5.25,5.6875 -5.25,16.8073 0,8.89584 4.48438,15.02084 4.52083,6.08854 14.6198,6.08854 z m -0.51042,-50.09377 z m 59.64586,25.99481 q 5.10417,0 8.05729,-2.04167 2.98959,-2.04167 2.98959,-7.36459 0,-5.72396 -4.15625,-7.80209 -2.22396,-1.09375 -5.94271,-1.09375 h -17.71876 v 18.3021 z M 687.404,404.84848 h 24.79168 q 6.12501,0 10.09897,1.78645 7.54688,3.42709 7.54688,12.65105 0,4.8125 -2.00521,7.87501 -1.96876,3.0625 -5.54167,4.92187 3.13541,1.27605 4.70312,3.35417 1.60417,2.07813 1.78646,6.7448 l 0.25521,7.18229 q 0.10938,3.0625 0.51042,4.5573 0.65625,2.55208 2.33333,3.28125 v 1.20312 h -8.89583 q -0.36459,-0.69271 -0.58334,-1.78646 -0.21875,-1.09375 -0.36458,-4.22917 l -0.4375,-8.93229 q -0.25521,-5.25 -3.90105,-7.03646 -2.07812,-0.98438 -6.52604,-0.98438 h -16.51563 v 22.96876 H 687.404 Z m 53.04691,0 h 7.25521 v 47.1771 h 27.12501 v 6.38021 h -34.38022 z m 62.08857,47.35939 q 3.6823,0 6.05209,-0.76562 4.22917,-1.42188 6.92708,-5.46876 2.15105,-3.24479 3.09896,-8.3125 0.54688,-3.02604 0.54688,-5.61459 0,-9.95313 -3.97396,-15.45834 -3.9375,-5.50521 -12.72396,-5.50521 h -12.8698 v 41.12502 z M 782.3051,404.84848 h 21.69272 q 11.04688,0 17.13542,7.83854 5.43229,7.07292 5.43229,18.1198 0,8.53125 -3.20833,15.42188 -5.65104,12.17709 -19.4323,12.17709 h -21.6198 z" id="text1" aria-label="WORLD"></path><path d="m 573.88837,473.72351 25.96875,112.03125 31.125,-112.03125 h 20.25 l 31.125,112.03125 25.96875,-112.03125 h 20.4375 l -36.1875,137.71875 h -19.59375 l -31.78125,-114.1875 -31.96875,114.1875 h -19.59375 l -36,-137.71875 z m 176.34375,0 h 18.84375 v 137.71875 h -18.84375 z m 49.125,0 h 22.03125 l 69.5625,111.5625 v -111.5625 h 17.71875 V 611.44226 H 887.76337 L 817.16962,499.97351 v 111.46875 h -17.8125 z m 53.4375,0 z m 138.09375,121.78125 q 9.46873,0 15.56253,-1.96875 10.875,-3.65625 17.8125,-14.0625 5.5312,-8.34375 7.9687,-21.375 1.4063,-7.78125 1.4063,-14.4375 0,-25.59375 -10.2188,-39.75 -10.125,-14.15625 -32.71873,-14.15625 h -33.09375 v 105.75 z M 938.85712,473.72351 h 55.78125 q 28.40623,0 44.06253,20.15625 13.9687,18.1875 13.9687,46.59375 0,21.9375 -8.25,39.65625 -14.5312,31.3125 -49.96873,31.3125 h -55.59375 z m 197.24998,-3.75 q 36.4688,0 54,23.4375 13.6875,18.28125 13.6875,46.78125 0,30.84375 -15.6562,51.28125 -18.375,24 -52.4063,24 -31.7812,0 -49.9687,-21 -16.2188,-20.25 -16.2188,-51.1875 0,-27.9375 13.875,-47.8125 17.8125,-25.5 52.6875,-25.5 z m 1.875,128.8125 q 24.6563,0 35.625,-17.625 11.0625,-17.71875 11.0625,-40.6875 0,-24.28125 -12.75,-39.09375 -12.6562,-14.8125 -34.6875,-14.8125 -21.375,0 -34.875,14.71875 -13.5,14.625 -13.5,43.21875 0,22.875 11.5313,38.625 11.625,15.65625 37.5937,15.65625 z m -1.3125,-128.8125 z m 98.4375,3.75 25.9688,112.03125 31.125,-112.03125 h 20.25 l 31.125,112.03125 25.9687,-112.03125 h 20.4375 l -36.1875,137.71875 h -19.5937 l -31.7813,-114.1875 -31.9687,114.1875 h -19.5938 l -36,-137.71875 z" id="text2" style="-inkscape-font-specification:Helvetica;fill:url(#radialGradient5);stroke-linecap:round;stroke-miterlimit:25;paint-order:fill markers stroke" aria-label="WINDOW"></path><path d="m 949.63816,626.85894 h 24.09897 q 7.14584,0 11.52084,4.04688 4.375,4.01042 4.375,11.30209 0,6.27083 -3.90104,10.9375 -3.90105,4.63021 -11.9948,4.63021 h -16.84376 v 22.64064 h -7.25521 z m 32.66668,15.38543 q 0,-5.90626 -4.375,-8.02084 -2.40625,-1.13021 -6.59896,-1.13021 h -14.43751 v 18.5573 h 14.43751 q 4.88542,0 7.91146,-2.07812 3.0625,-2.07813 3.0625,-7.32813 z m 24.31776,-15.38543 v 33.10419 q 0,5.83333 2.1875,9.69792 3.2448,5.83333 10.9375,5.83333 9.2239,0 12.5416,-6.30729 1.7865,-3.42709 1.7865,-9.22396 v -33.10419 h 7.3646 v 30.07814 q 0,9.88021 -2.6615,15.20313 -4.8854,9.69793 -18.4479,9.69793 -13.5625,0 -18.4115,-9.69793 -2.66142,-5.32292 -2.66142,-15.20313 v -30.07814 z m 13.7448,0 z m 52.4271,22.64064 q 4.5937,0 7.1458,-1.27604 4.0104,-2.00521 4.0104,-7.21876 0,-5.25 -4.2656,-7.07292 -2.4062,-1.02083 -7.1458,-1.02083 h -12.9427 v 16.58855 z m 2.4427,24.71876 q 6.6719,0 9.5156,-3.86459 1.7865,-2.4427 1.7865,-5.90625 0,-5.83333 -5.2136,-7.94792 -2.7708,-1.13021 -7.3281,-1.13021 h -14.401 v 18.84897 z m -22.75,-47.3594 h 23.0052 q 9.4062,0 13.3802,5.61459 2.3333,3.31771 2.3333,7.65625 0,5.06771 -2.8802,8.31251 -1.4948,1.71354 -4.3021,3.13541 4.1198,1.56771 6.1615,3.53646 3.6094,3.50001 3.6094,9.66147 0,5.17708 -3.2448,9.36979 -4.849,6.27084 -15.4219,6.27084 h -22.6406 z m 49.9844,0 h 7.2552 v 47.17711 h 27.125 v 6.38021 h -34.3802 z m 43.1667,0 h 7.3281 v 53.55732 h -7.3281 z m 23.8437,36.27606 q 0.2552,4.5573 2.1511,7.40105 3.6093,5.32292 12.7239,5.32292 4.0834,0 7.4375,-1.16667 6.4896,-2.26042 6.4896,-8.09376 0,-4.375 -2.7344,-6.23437 -2.7708,-1.82292 -8.677,-3.17188 l -7.2553,-1.64063 q -7.1093,-1.60416 -10.0625,-3.53646 -5.1041,-3.35416 -5.1041,-10.02604 0,-7.21876 4.9948,-11.84897 4.9948,-4.63021 14.1458,-4.63021 8.4219,0 14.2917,4.08334 5.9062,4.04688 5.9062,12.97917 h -6.8177 q -0.5469,-4.30208 -2.3333,-6.59896 -3.3177,-4.19271 -11.2656,-4.19271 -6.4167,0 -9.224,2.69792 -2.8073,2.69792 -2.8073,6.27083 0,3.93751 3.2812,5.76042 2.1511,1.16667 9.7344,2.91667 l 7.5104,1.71354 q 5.4323,1.23959 8.3855,3.39063 5.1041,3.75521 5.1041,10.90105 0,8.89584 -6.4896,12.72396 -6.4531,3.82813 -15.0208,3.82813 -9.9896,0 -15.6406,-5.10417 -5.6511,-5.06771 -5.5417,-13.7448 z m 14.6563,-37.73439 z m 30.5885,1.45833 h 7.3282 v 22.13022 h 27.8541 v -22.13022 h 7.3282 v 53.55732 h -7.3282 v -25.04689 h -27.8541 v 25.04689 h -7.3282 z m 55.3803,0 h 7.3281 v 53.55732 h -7.3281 z m 19.1042,0 h 8.5677 l 27.0521,43.38544 v -43.38544 h 6.8906 v 53.55732 h -8.1302 l -27.4532,-43.34898 v 43.34898 h -6.927 z m 20.7812,0 z m 56.2917,-1.38541 q 7.5469,0 13.0521,2.91666 7.9844,4.19271 9.7708,14.69272 h -7.1823 q -1.3125,-5.8698 -5.4323,-8.53126 -4.1198,-2.69791 -10.3906,-2.69791 -7.4375,0 -12.5417,5.57812 -5.0677,5.57813 -5.0677,16.62501 0,9.55209 4.1927,15.56772 4.1927,5.97917 13.6719,5.97917 7.2552,0 11.9948,-4.19271 4.776,-4.22917 4.8854,-13.63543 h -16.7708 V 651.76 h 23.5156 v 28.65626 h -4.6667 l -1.75,-6.89063 q -3.6822,4.04688 -6.526,5.61459 -4.776,2.69792 -12.1406,2.69792 -9.5157,0 -16.3698,-6.16147 -7.474,-7.72917 -7.474,-21.21876 0,-13.45313 7.2917,-21.40105 6.9271,-7.58333 17.9375,-7.58333 z m -1.2031,-0.0729 z" id="text3" style="-inkscape-font-specification:Helvetica;fill:#e6e6e6;fill-opacity:1;stroke-linecap:round;stroke-miterlimit:25;paint-order:fill markers stroke" aria-label="PUBLISHING"></path><rect style="fill:#e6e6e6;stroke:none;stroke-width:0.480973;stroke-linecap:round;stroke-miterlimit:25;paint-order:fill markers stroke" id="rect3" width="371.49759" height="4.6437197" x="566.06683" y="626.85895"></rect><rect style="fill:#e6e6e6;stroke:none;stroke-width:1.03575;stroke-linecap:round;stroke-miterlimit:25;paint-order:fill markers stroke" id="rect4" width="1180" height="10" x="667.22345" y="348.50485" transform="matrix(0.46437199,0,0,0.46437199,526.0131,291.92618)"></rect></g></g></g></g></svg> 